{
.appVersion = "3151";
.formatVersion = 3;
DisplayStrings = (
"AEGHINOPSVY
abeghinopsvy"
);
date = "2023-01-30 04:08:24 +0000";
familyName = "AM 001";
fontMaster = (
{
customParameters = (
{
name = paramArea;
value = 342;
},
{
name = paramDepth;
value = 16;
}
);
id = m01;
metricValues = (
{
over = 16;
pos = 709;
},
{
over = 16;
pos = 645;
},
{
over = 16;
pos = 443;
},
{
over = -16;
},
{
over = -16;
pos = -273;
},
{
over = -16;
}
);
name = Regular;
}
);
glyphs = (
{
glyphname = A;
lastChange = "2023-01-30 15:16:07 +0000";
layers = (
{
layerId = m01;
shapes = (
{
attr = {
fillColor = (0,255);
};
closed = 1;
nodes = (
(293,561,o),
(238,437,o),
(190,319,c),
(141,203,o),
(96,97,o),
(90,83,c),
(78,58,o),
(46,28,o),
(26,22,c),
(18,19,o),
(12,13,o),
(12,8,c),
(12,1,o),
(30,-1,o),
(113,-1,c),
(196,-1,o),
(214,1,o),
(214,8,c),
(214,13,o),
(204,19,o),
(195,22,c),
(168,27,o),
(143,49,o),
(143,64,c),
(143,76,o),
(167,151,o),
(189,206,c),
(198,225,l),
(312,225,l),
(427,225,l),
(442,192,l),
(467,133,o),
(492,55,o),
(489,47,c),
(487,39,o),
(453,25,o),
(416,14,c),
(413,13,o),
(409,10,o),
(409,5,c),
(409,1,o),
(456,-1,o),
(546,-1,c),
(656,-1,o),
(682,1,o),
(682,8,c),
(682,13,o),
(671,22,o),
(656,26,c),
(620,41,o),
(610,63,o),
(426,533,c),
(380,651,o),
(374,661,o),
(359,661,c),
(346,661,o),
(338,652,o),
(311,596,c)
);
},
{
attr = {
fillColor = (0,255);
};
closed = 1;
nodes = (
(390,328,o),
(409,277,o),
(409,274,c),
(409,273,o),
(366,272,o),
(312,272,c),
(215,272,l),
(258,380,l),
(281,440,o),
(303,498,o),
(307,509,c),
(313,526,o),
(314,526,o),
(320,515,c),
(322,508,o),
(343,452,o),
(366,390,c)
);
}
);
width = 694;
}
);
unicode = 65;
},
{
glyphname = B;
lastChange = "2023-01-30 14:33:56 +0000";
layers = (
{
layerId = m01;
shapes = (
{
attr = {
fillColor = (0,255);
};
closed = 1;
nodes = (
(50,628,o),
(56,625,o),
(67,625,c),
(93,625,o),
(127,606,o),
(135,588,c),
(138,578,o),
(140,469,o),
(140,315,c),
(140,22,o),
(143,34,o),
(82,20,c),
(64,15,o),
(50,10,o),
(51,5,c),
(53,-2,o),
(363,-1,o),
(400,7,c),
(465,22,o),
(522,68,o),
(545,123,c),
(559,159,o),
(556,232,o),
(539,265,c),
(514,311,o),
(452,351,o),
(401,351,c),
(388,352,o),
(389,353,o),
(412,364,c),
(484,396,o),
(513,441,o),
(513,511,c),
(513,546,o),
(511,556,o),
(496,579,c),
(484,596,o),
(463,614,o),
(443,625,c),
(412,640,o),
(409,640,o),
(231,642,c),
(70,643,o),
(50,643,o),
(50,633,c)
);
},
{
attr = {
fillColor = (0,255);
};
closed = 1;
nodes = (
(393,577,o),
(411,544,o),
(411,487,c),
(411,413,o),
(380,375,o),
(314,364,c),
(249,354,o),
(250,351,o),
(250,461,c),
(250,513,o),
(254,571,o),
(256,586,c),
(259,616,l),
(293,614,l),
(311,610,o),
(339,604,o),
(355,596,c)
);
},
{
attr = {
fillColor = (0,255);
};
closed = 1;
nodes = (
(419,291,o),
(441,249,o),
(441,178,c),
(441,77,o),
(393,28,o),
(297,34,c),
(255,36,l),
(254,185,l),
(250,332,l),
(298,329,l),
(324,325,o),
(357,318,o),
(371,312,c)
);
}
);
width = 604;
}
);
unicode = 66;
},
{
glyphname = E;
lastChange = "2023-01-30 15:16:07 +0000";
layers = (
{
layerId = m01;
shapes = (
{
attr = {
fillColor = (0,255);
};
closed = 1;
nodes = (
(17,631,o),
(30,623,o),
(47,618,c),
(104,603,o),
(101,620,o),
(101,328,c),
(101,43,o),
(101,40,o),
(62,27,c),
(50,23,o),
(36,19,o),
(29,19,c),
(23,19,o),
(17,15,o),
(17,10,c),
(17,1,o),
(49,0,o),
(264,0,c),
(510,0,l),
(514,90,l),
(518,159,o),
(518,185,o),
(511,189,c),
(506,196,o),
(501,195,o),
(495,185,c),
(489,180,o),
(485,170,o),
(485,164,c),
(485,148,o),
(454,87,o),
(438,73,c),
(418,54,o),
(369,44,o),
(293,44,c),
(209,44,o),
(212,39,o),
(212,195,c),
(212,320,l),
(268,316,l),
(304,314,o),
(331,308,o),
(344,301,c),
(367,286,o),
(393,241,o),
(393,213,c),
(393,199,o),
(398,195,o),
(407,195,c),
(419,195,o),
(421,199,o),
(421,325,c),
(421,449,o),
(419,455,o),
(407,455,c),
(399,455,o),
(393,449,o),
(390,428,c),
(381,373,o),
(343,351,o),
(256,351,c),
(212,351,l),
(212,463,l),
(212,525,o),
(213,582,o),
(216,591,c),
(221,606,o),
(221,606,o),
(294,603,c),
(350,600,o),
(374,595,o),
(389,587,c),
(414,572,o),
(437,539,o),
(446,506,c),
(451,488,o),
(457,480,o),
(465,480,c),
(477,480,o),
(478,485,o),
(478,561,c),
(478,644,l),
(247,644,l),
(63,644,o),
(17,642,o),
(17,635,c)
);
}
);
width = 556;
}
);
unicode = 69;
},
{
glyphname = G;
lastChange = "2023-01-30 15:16:07 +0000";
layers = (
{
layerId = m01;
shapes = (
{
attr = {
fillColor = (0,255);
};
closed = 1;
nodes = (
(245,641,o),
(187,608,o),
(142,565,c),
(72,497,o),
(40,416,o),
(40,306,c),
(40,202,o),
(69,130,o),
(135,66,c),
(201,3,o),
(272,-17,o),
(404,-11,c),
(485,-8,o),
(529,1,o),
(602,27,c),
(639,40,l),
(639,123,l),
(640,216,o),
(645,232,o),
(680,249,c),
(693,255,o),
(704,264,o),
(704,267,c),
(704,270,o),
(656,274,o),
(574,274,c),
(468,274,o),
(444,271,o),
(444,264,c),
(444,258,o),
(455,253,o),
(472,251,c),
(486,247,o),
(506,238,o),
(513,231,c),
(528,216,o),
(529,210,o),
(529,144,c),
(529,59,o),
(525,54,o),
(462,36,c),
(414,23,o),
(348,26,o),
(304,46,c),
(191,95,o),
(134,254,o),
(168,421,c),
(187,509,o),
(231,572,o),
(299,605,cs),
(327,619,o),
(359,620,o),
(402,620,c),
(481,620,o),
(519,609,o),
(558,573,c),
(578,555,o),
(606,498,o),
(606,480,c),
(607,465,o),
(616,461,o),
(629,465,c),
(638,469,o),
(639,482,o),
(638,552,c),
(637,633,l),
(581,644,l),
(507,662,o),
(356,666,o),
(304,654,c)
);
}
);
width = 722;
}
);
unicode = 71;
},
{
glyphname = H;
lastChange = "2023-01-30 15:16:07 +0000";
layers = (
{
layerId = m01;
shapes = (
{
attr = {
fillColor = (0,255);
};
closed = 1;
nodes = (
(17,630,o),
(28,625,o),
(41,622,c),
(76,615,o),
(100,602,o),
(104,584,c),
(106,577,o),
(108,456,o),
(108,316,c),
(109,23,o),
(112,35,o),
(50,20,c),
(31,16,o),
(18,9,o),
(19,6,c),
(21,-2,o),
(298,-1,o),
(305,8,c),
(310,11,o),
(305,14,o),
(293,17,c),
(258,24,o),
(232,40,o),
(225,57,c),
(222,65,o),
(219,132,o),
(219,204,c),
(219,332,l),
(389,332,l),
(557,332,l),
(557,197,l),
(557,69,o),
(556,61,o),
(544,44,c),
(535,34,o),
(518,24,o),
(501,20,c),
(483,14,o),
(472,9,o),
(472,2,c),
(472,-6,o),
(478,-6,o),
(508,-3,c),
(525,-1,o),
(589,1,o),
(650,1,c),
(734,1,o),
(758,2,o),
(756,10,c),
(755,13,o),
(746,18,o),
(739,20,c),
(730,21,o),
(711,25,o),
(698,32,c),
(680,40,o),
(673,46,o),
(670,62,c),
(668,73,o),
(668,195,o),
(669,335,c),
(670,618,o),
(668,604,o),
(725,619,c),
(741,625,o),
(755,632,o),
(756,637,c),
(758,643,o),
(727,645,o),
(612,645,c),
(490,645,o),
(466,643,o),
(466,635,c),
(466,629,o),
(476,625,o),
(493,622,c),
(510,618,o),
(527,610,o),
(538,599,c),
(557,581,l),
(557,475,l),
(557,372,l),
(388,372,l),
(218,372,l),
(221,480,l),
(223,586,l),
(239,603,l),
(249,610,o),
(269,619,o),
(283,622,c),
(300,625,o),
(310,629,o),
(310,635,c),
(310,643,o),
(285,645,o),
(163,645,c),
(43,645,o),
(17,643,o),
(17,635,c)
);
}
);
width = 773;
},
{
associatedMasterId = m01;
layerId = "B1847C2B-CF75-4A97-B80C-5CF1F03964CD";
name = "Initial Import";
shapes = (
{
attr = {
fillColor = (0,255);
};
closed = 1;
nodes = (
(546.63,914.537,o),
(543.343,912.787,o),
(543.142,911.762,c),
(542.93,910.687,o),
(543.495,910.156,o),
(544.851,910.156,c),
(545.964,910.156,o),
(547.754,909.277,o),
(548.828,908.203,c),
(550.725,906.307,o),
(550.781,904.948,o),
(550.781,861.274,c),
(550.781,816.299,l),
(556.396,813.723,l),
(564.046,810.213,o),
(576.771,810.062,o),
(585.239,813.381,c),
(608.453,822.479,o),
(617.866,855.867,o),
(602.804,875.684,c),
(598.915,880.8,o),
(592.981,883.086,o),
(584.68,882.666,c),
(577.686,882.312,o),
(574.609,881.063,o),
(566.588,875.32,c),
(564.328,873.702,l),
(564.531,896.568,l),
(564.769,923.358,o),
(565.832,921.623,o),
(552.246,916.609,c)
);
},
{
attr = {
fillColor = (0,255);
};
closed = 1;
nodes = (
(254.312,906.89,o),
(241.386,893.851,o),
(236.847,876.424,c),
(234.899,868.948,o),
(234.9,852.728,o),
(236.849,845.249,c),
(241.271,828.272,o),
(254.06,816.649,o),
(272.398,812.939,c),
(297.357,807.891,o),
(321.368,818.773,o),
(331.959,839.935,c),
(336.574,849.155,o),
(338.387,858.75,o),
(337.506,869.308,c),
(335.588,892.308,o),
(323.94,906.791,o),
(303.485,911.613,c),
(295.765,913.434,o),
(278.53,913.408,o),
(271.686,911.565,c)
);
},
{
attr = {
fillColor = (0,255);
};
closed = 1;
nodes = (
(55.664,908.009,o),
(57.174,907.16,o),
(59.292,906.764,c),
(64.564,905.774,o),
(68.026,903.715,o),
(68.71,901.162,c),
(69.04,899.933,o),
(69.315,881.736,o),
(69.322,860.728,c),
(69.338,816.855,o),
(69.694,818.656,o),
(60.528,816.308,c),
(57.833,815.616,o),
(55.757,814.662,o),
(55.915,814.187,c),
(56.313,812.995,o),
(97.742,813.172,o),
(98.941,814.371,c),
(99.558,814.987,o),
(98.897,815.533,o),
(97.065,815.924,c),
(91.751,817.056,o),
(87.847,819.324,o),
(86.892,821.836,c),
(86.367,823.216,o),
(85.938,833.106,o),
(85.938,843.813,c),
(85.938,863.281,l),
(111.328,863.281,l),
(136.719,863.281,l),
(136.719,842.905,l),
(136.719,823.758,o),
(136.597,822.374,o),
(134.691,819.951,c),
(133.468,818.396,o),
(130.95,816.942,o),
(128.344,816.285,c),
(125.605,815.596,o),
(124.023,814.654,o),
(124.023,813.713,c),
(124.023,812.494,o),
(124.943,812.339,o),
(129.15,812.844,c),
(131.97,813.183,o),
(141.675,813.464,o),
(150.716,813.468,c),
(163.428,813.475,o),
(167.063,813.753,o),
(166.753,814.697,c),
(166.532,815.368,o),
(165.287,816.044,o),
(163.986,816.199,c),
(162.686,816.354,o),
(159.981,817.186,o),
(157.977,818.048,c),
(155.168,819.257,o),
(154.206,820.312,o),
(153.778,822.65,c),
(153.474,824.318,o),
(153.355,842.667,o),
(153.517,863.424,c),
(153.848,906.185,o),
(153.438,904.09,o),
(161.922,906.486,c),
(164.356,907.174,o),
(166.529,908.28,o),
(166.752,908.946,c),
(167.064,909.885,o),
(162.206,910.156,o),
(145.101,910.156,c),
(126.759,910.156,o),
(123.047,909.924,o),
(123.047,908.777,c),
(123.047,907.919,o),
(124.594,907.137,o),
(127.146,906.705,c),
(129.675,906.278,o),
(132.296,904.964,o),
(133.982,903.277,c),
(136.719,900.541,l),
(136.719,884.841,l),
(136.719,869.141,l),
(111.244,869.141,l),
(85.77,869.141,l),
(86.098,885.34,l),
(86.426,901.539,l),
(89.055,903.8,l),
(90.501,905.042,o),
(93.467,906.36,o),
(95.646,906.729,c),
(98.093,907.142,o),
(99.609,907.926,o),
(99.609,908.777,c),
(99.609,909.924,o),
(95.909,910.156,o),
(77.637,910.156,c),
(59.539,910.156,o),
(55.664,909.917,o),
(55.664,908.8,c)
);
},
{
attr = {
fillColor = (0,255);
};
closed = 1;
nodes = (
(304.413,901.937,o),
(312.126,893.673,o),
(314.487,888.335,c),
(319.405,877.215,o),
(320.846,859.552,o),
(317.863,846.905,c),
(313.789,829.621,o),
(302.632,818.65,o),
(288.069,817.608,c),
(278.717,816.939,o),
(272.455,819.213,o),
(266.088,825.589,c),
(256.746,834.942,o),
(252.165,849.76,o),
(253.231,867.168,c),
(254.446,886.998,o),
(262.344,901.114,o),
(274.79,905.704,c),
(280.653,907.865,o),
(294.179,907.237,o),
(299.341,904.564,c)
);
},
{
attr = {
fillColor = (0,255);
};
closed = 1;
nodes = (
(442.169,881.688,o),
(437.308,879.338,o),
(433.594,876.521,c),
(430.176,873.929,l),
(429.878,878.37,l),
(429.614,882.311,o),
(429.318,882.812,o),
(427.263,882.812,c),
(423.772,882.812,o),
(406.25,874.977,o),
(406.25,873.416,c),
(406.25,872.643,o),
(407.258,872.07,o),
(408.62,872.07,c),
(410.019,872.07,o),
(411.821,871.015,o),
(413.015,869.497,c),
(414.994,866.981,o),
(415.039,865.952,o),
(415.039,823.534,c),
(415.039,796.699,o),
(414.669,779.454,o),
(414.07,778.334,c),
(413.537,777.339,o),
(411.556,776.014,o),
(409.666,775.39,c),
(407.777,774.767,o),
(406.481,773.853,o),
(406.787,773.358,c),
(407.092,772.865,o),
(414.566,772.461,o),
(423.397,772.461,c),
(437.019,772.461,o),
(439.453,772.683,o),
(439.453,773.926,c),
(439.453,774.751,o),
(438.58,775.391,o),
(437.451,775.391,c),
(436.351,775.391,o),
(434.18,776.047,o),
(432.628,776.85,c),
(429.256,778.594,o),
(429.067,779.899,o),
(429.496,798.605,c),
(429.794,811.567,l),
(435.979,810.934,l),
(447.424,809.761,o),
(458.414,813.927,o),
(466.4,822.465,c),
(479.525,836.497,o),
(480.892,861.949,o),
(469.262,875.771,c),
(464.626,881.28,o),
(453.76,884.723,o),
(446.777,882.895,c)
);
},
{
attr = {
fillColor = (0,255);
};
closed = 1;
nodes = (
(731.901,882.229,o),
(725.567,879.625,o),
(721.065,876.425,c),
(718.453,874.567,o),
(715.969,873.047,o),
(715.546,873.047,c),
(715.123,873.047,o),
(715.068,875.244,o),
(715.424,877.93,c),
(716.072,882.812,l),
(713.185,882.812,l),
(710.333,882.812,o),
(701.237,879.493,o),
(694.058,875.833,c),
(690.321,873.929,o),
(689.979,872.07,o),
(693.362,872.07,c),
(694.375,872.07,o),
(696.437,871.01,o),
(697.943,869.714,c),
(700.684,867.358,l),
(701.008,845.544,l),
(701.217,831.507,o),
(700.957,822.754,o),
(700.279,820.992,c),
(699.566,819.136,o),
(697.783,817.614,o),
(694.747,816.271,c),
(692.283,815.182,o),
(690.508,814.049,o),
(690.803,813.755,c),
(691.097,813.46,o),
(698.694,813.22,o),
(707.687,813.22,c),
(724.491,813.22,o),
(728.731,814.244,o),
(720.783,816.385,c),
(718.608,816.97,o),
(716.37,818.309,o),
(715.808,819.359,c),
(715.168,820.555,o),
(714.819,830.181,o),
(714.877,845.077,c),
(714.97,868.885,l),
(719.901,870.478,l),
(730.392,873.865,o),
(739.813,871.782,o),
(743.619,865.234,c),
(745.413,862.147,o),
(745.637,859.811,o),
(745.933,841.126,c),
(746.25,821.067,o),
(746.197,820.382,o),
(744.195,818.665,c),
(743.06,817.691,o),
(740.832,816.455,o),
(739.244,815.918,c),
(733.026,813.814,o),
(736.331,813.176,o),
(752.913,813.275,c),
(770.234,813.381,o),
(774.37,814.314,o),
(766.682,816.385,c),
(764.507,816.97,o),
(762.281,818.284,o),
(761.735,819.305,c),
(761.146,820.406,o),
(760.74,830.218,o),
(760.736,843.441,c),
(760.731,866.446,o),
(760.119,871.353,o),
(756.643,876.243,c),
(753.283,880.969,o),
(744.16,884.203,o),
(737.305,883.099,c)
);
},
{
attr = {
fillColor = (0,255);
};
closed = 1;
nodes = (
(853.55,877.99,o),
(854.968,876.748,o),
(856.687,875.9,c),
(860.444,874.048,o),
(861.193,872.593,o),
(876.311,837.752,c),
(887.601,811.734,l),
(881.655,798.201,l),
(878.385,790.758,o),
(874.814,783.395,o),
(873.721,781.838,c),
(871.89,779.232,o),
(871.677,779.158,o),
(871.034,780.896,c),
(869.32,785.526,o),
(863.072,787.37,o),
(859.339,784.347,c),
(857.42,782.793,o),
(856.934,781.499,o),
(856.934,777.953,c),
(856.934,772.699,o),
(858.572,770.674,o),
(863.464,769.88,c),
(868.872,769.002,o),
(873.655,771.825,o),
(877.908,778.405,c),
(881.836,784.483,o),
(894.332,814.174,o),
(907.846,849.54,c),
(910.808,857.29,o),
(914.282,865.706,o),
(915.567,868.242,c),
(917.946,872.938,o),
(922.04,876.953,o),
(924.448,876.953,c),
(925.182,876.953,o),
(925.781,877.612,o),
(925.781,878.418,c),
(925.781,879.653,o),
(923.548,879.883,o),
(911.54,879.883,c),
(900.87,879.883,o),
(897.397,879.588,o),
(897.69,878.707,c),
(897.905,878.061,o),
(899.461,877.174,o),
(901.146,876.737,c),
(904.769,875.799,o),
(907.227,872.669,o),
(907.227,868.996,c),
(907.227,867.545,o),
(904.541,858.524,o),
(901.259,848.95,c),
(895.753,832.888,o),
(893.555,827.741,o),
(893.555,830.911,c),
(893.555,831.585,o),
(890.259,840.906,o),
(886.23,851.626,c),
(882.202,862.347,o),
(878.906,871.832,o),
(878.906,872.707,c),
(878.906,874.766,o),
(881.727,876.883,o),
(884.521,876.922,c),
(885.81,876.94,o),
(886.719,877.56,o),
(886.719,878.418,c),
(886.719,879.663,o),
(884.223,879.883,o),
(870.117,879.883,c),
(857.476,879.883,o),
(853.521,879.592,o),
(853.538,878.662,c)
);
},
{
attr = {
fillColor = (0,255);
};
closed = 1;
nodes = (
(459.03,864.86,o),
(462.321,857.147,o),
(462.734,846.134,c),
(462.917,841.269,o),
(462.599,835.552,o),
(462.027,833.43,c),
(459.122,822.641,o),
(449.994,815.647,o),
(440.148,816.669,c),
(437.349,816.959,o),
(433.843,817.752,o),
(432.356,818.431,c),
(429.655,819.664,l),
(429.915,844.646,l),
(430.176,869.629,l),
(433.594,870.854,l),
(438.997,872.791,o),
(448.563,871.787,o),
(453.059,868.813,c)
);
},
{
attr = {
fillColor = (0,255);
};
closed = 1;
nodes = (
(592.623,864.99,o),
(595.993,857.265,o),
(596.492,846.759,c),
(597.138,833.191,o),
(593.973,825.614,o),
(585.93,821.471,c),
(579.94,818.386,o),
(570.617,818.769,o),
(566.908,822.253,c),
(564.418,824.592,l),
(564.68,847.11,l),
(564.941,869.629,l),
(568.359,870.854,l),
(573.585,872.726,o),
(582.422,871.741,o),
(586.883,868.789,c)
);
},
{
attr = {
fillColor = (0,255);
};
closed = 1;
nodes = (
(268.438,677.215,o),
(260.291,666.647,o),
(260.447,652.729,c),
(260.595,639.614,o),
(265.89,632.714,o),
(281.771,624.938,c),
(295.401,618.266,o),
(299.841,613.01,o),
(299.783,603.614,c),
(299.759,599.535,o),
(297.009,593.026,o),
(294.292,590.613,c),
(288.681,585.632,o),
(278.58,584.535,o),
(271.455,588.135,c),
(266.282,590.748,o),
(263.311,594.898,o),
(260.847,602.952,c),
(259.435,607.565,o),
(258.562,608.957,o),
(256.927,609.203,c),
(254.855,609.514,o),
(254.827,609.333,o),
(255.098,597.024,c),
(255.371,584.53,l),
(260.254,582.611,l),
(264.057,581.117,o),
(267.622,580.679,o),
(276.367,580.63,c),
(286.498,580.572,o),
(288.128,580.815,o),
(293.014,583.106,c),
(300.743,586.732,o),
(305.159,591.02,o),
(308.817,598.452,c),
(311.668,604.241,o),
(312.012,605.835,o),
(312.012,613.261,c),
(312.012,620.597,o),
(311.691,622.127,o),
(309.304,626.189,c),
(306.111,631.62,o),
(300.943,635.399,o),
(290.402,640.014,c),
(279.839,644.638,o),
(274.939,649.015,o),
(273.471,655.135,c),
(271.509,663.312,o),
(274.635,670.865,o),
(281.445,674.409,c),
(285.074,676.297,o),
(292.772,676.127,o),
(296.806,674.07,c),
(301.115,671.873,o),
(303.292,668.829,o),
(306.104,661.064,c),
(309.675,651.2,o),
(310.985,652.616,o),
(311.309,666.694,c),
(311.583,678.603,l),
(307.891,679.683,l),
(302.806,681.17,o),
(286.44,681.776,o),
(281.967,680.644,c)
);
},
{
attr = {
fillColor = (0,255);
};
closed = 1;
nodes = (
(72.266,676.754,o),
(74.241,675.658,o),
(76.655,675.013,c),
(85.434,672.664,o),
(84.961,675.152,o),
(84.961,631.299,c),
(84.961,588.657,o),
(84.888,588.101,o),
(78.985,586.043,c),
(77.277,585.448,o),
(75.067,584.961,o),
(74.073,584.961,c),
(73.079,584.961,o),
(72.266,584.302,o),
(72.266,583.496,c),
(72.266,582.22,o),
(77.027,582.031,o),
(109.266,582.031,c),
(146.265,582.031,l),
(146.977,595.784,l),
(147.501,605.906,o),
(147.384,609.839,o),
(146.532,610.677,c),
(145.649,611.548,o),
(145.046,611.369,o),
(143.978,609.921,c),
(143.208,608.878,o),
(142.578,607.463,o),
(142.578,606.774,c),
(142.578,604.327,o),
(137.92,595.179,o),
(135.579,593.029,c),
(132.563,590.258,o),
(125.279,588.867,o),
(113.787,588.867,c),
(101.056,588.867,o),
(101.562,587.938,o),
(101.562,611.306,c),
(101.562,630.173,l),
(109.945,629.581,l),
(115.329,629.201,o),
(119.436,628.355,o),
(121.42,627.217,c),
(124.9,625.221,o),
(128.906,618.175,o),
(128.906,614.051,c),
(128.906,611.979,o),
(129.373,611.328,o),
(130.859,611.328,c),
(132.747,611.328,o),
(132.812,611.979,o),
(132.812,630.859,c),
(132.812,649.44,o),
(132.722,650.391,o),
(130.945,650.391,c),
(129.52,650.391,o),
(128.918,649.442,o),
(128.401,646.385,c),
(127.005,638.123,o),
(121.265,634.835,o),
(108.154,634.789,c),
(101.562,634.766,l),
(101.576,651.611,l),
(101.583,660.877,o),
(101.87,669.508,o),
(102.214,670.792,c),
(102.838,673.123,o),
(102.857,673.126,o),
(113.937,672.58,c),
(122.311,672.168,o),
(125.811,671.582,o),
(128.188,670.192,c),
(131.985,667.975,o),
(135.383,663.163,o),
(136.759,658.056,c),
(137.496,655.316,o),
(138.29,654.297,o),
(139.687,654.297,c),
(141.487,654.297,o),
(141.602,655.028,o),
(141.602,666.504,c),
(141.602,678.711,l),
(106.934,678.711,l),
(79.241,678.711,o),
(72.266,678.457,o),
(72.266,677.448,c)
);
},
{
attr = {
fillColor = (0,255);
};
closed = 1;
nodes = (
(432.526,649.371,o),
(426.446,645.546,o),
(423.922,640.33,c),
(419.853,631.924,o),
(422.045,619.728,o),
(428.387,615.493,c),
(429.807,614.545,o),
(434.3,612.012,o),
(438.372,609.863,c),
(449.302,604.098,o),
(452.211,598.78,o),
(448.599,591.169,c),
(446.528,586.806,o),
(442.262,584.589,o),
(437.232,585.264,c),
(431.822,585.989,o),
(428.2,589.869,o),
(425.027,598.337,c),
(423.12,603.429,o),
(421.878,605.45,o),
(420.654,605.458,c),
(419.129,605.468,o),
(418.945,604.308,o),
(418.945,594.677,c),
(418.945,583.885,l),
(422.607,582.322,l),
(428.134,579.964,o),
(440.155,579.506,o),
(445.955,581.433,c),
(452.156,583.491,o),
(457.794,588.19,o),
(460.065,593.192,c),
(462.22,597.935,o),
(462.482,607.101,o),
(460.595,611.619,c),
(458.761,616.008,o),
(452.876,620.892,o),
(445.342,624.275,c),
(437.599,627.754,o),
(433.812,631.147,o),
(433.031,635.307,c),
(432.372,638.822,o),
(434.512,643.925,o),
(437.056,644.901,c),
(440.462,646.208,o),
(446.059,645.482,o),
(448.722,643.388,c),
(451.839,640.936,o),
(455.025,634.51,o),
(455.057,630.615,c),
(455.072,628.651,o),
(455.568,627.93,o),
(456.903,627.93,c),
(459.071,627.93,o),
(459.934,631.852,o),
(459.95,641.78,c),
(459.96,647.658,o),
(459.747,648.374,o),
(457.804,648.99,c),
(453.739,650.28,o),
(444.823,650.914,o),
(439.728,650.274,c)
);
},
{
attr = {
fillColor = (0,255);
};
closed = 1;
nodes = (
(568.725,648.383,o),
(562.647,644.018,o),
(557.601,636.461,c),
(552.133,628.273,o),
(550.496,621.699,o),
(550.98,609.863,c),
(551.314,601.69,o),
(551.802,599.279,o),
(553.971,595.08,c),
(560.457,582.522,o),
(574.147,577.265,o),
(588.934,581.652,c),
(596.866,584.006,o),
(605.469,590.454,o),
(605.469,594.047,c),
(605.469,596.109,o),
(605.633,596.131,o),
(596.68,592.852,c),
(587.51,589.492,o),
(578.945,590.7,o),
(572.438,596.271,c),
(567.669,600.353,o),
(565.573,605.427,o),
(564.78,614.811,c),
(564.167,622.07,l),
(585.75,622.07,l),
(607.333,622.07,l),
(607.927,625.244,l),
(608.589,628.787,o),
(607.123,636.482,o),
(605.004,640.58,c),
(602.971,644.511,o),
(597.272,649.158,o),
(593.044,650.332,c),
(588.71,651.535,o),
(582.061,651.522,o),
(576.873,650.301,c)
);
},
{
attr = {
fillColor = (0,255);
};
closed = 1;
nodes = (
(693.059,643.972,o),
(691.406,643.198,o),
(691.406,641.876,c),
(691.406,641.187,o),
(692.522,640.625,o),
(693.892,640.625,c),
(695.259,640.625,o),
(697.456,639.546,o),
(698.774,638.228,c),
(701.172,635.831,l),
(701.172,612.52,l),
(701.172,589.603,o),
(701.135,589.173,o),
(698.975,587.156,c),
(697.767,586.028,o),
(695.55,584.801,o),
(694.049,584.429,c),
(691.475,583.789,o),
(690.753,581.432,o),
(693.196,581.641,c),
(693.823,581.694,o),
(701.147,581.804,o),
(709.473,581.885,c),
(717.798,581.966,o),
(724.609,582.372,o),
(724.609,582.789,c),
(724.609,583.206,o),
(722.741,584.414,o),
(720.459,585.475,c),
(716.309,587.402,l),
(716.048,612.385,l),
(715.788,637.367,l),
(718.489,638.638,l),
(723.065,640.789,o),
(734.486,641.122,o),
(738.181,639.213,c),
(744.2,636.1,o),
(745.071,632.248,o),
(745.096,608.628,c),
(745.117,587.862,l),
(741.943,585.927,l),
(740.197,584.862,o),
(738,583.99,o),
(737.061,583.988,c),
(736.121,583.986,o),
(735.352,583.545,o),
(735.352,583.008,c),
(735.352,582.393,o),
(741.889,582.031,o),
(753.011,582.031,c),
(766.114,582.031,o),
(770.572,582.327,o),
(770.288,583.18,c),
(770.077,583.812,o),
(768.18,584.812,o),
(766.071,585.404,c),
(760.06,587.091,o),
(759.796,588.291,o),
(759.78,614.045,c),
(759.765,637.787,o),
(759.27,641.146,o),
(755.09,645.855,c),
(750.881,650.594,o),
(740.531,652.659,o),
(732.364,650.391,c),
(730.452,649.859,o),
(726.058,647.71,o),
(722.599,645.613,c),
(716.309,641.801,l),
(715.82,646.265,l),
(715.552,648.719,o),
(714.893,650.862,o),
(714.355,651.027,c),
(713.818,651.191,o),
(709.863,650.054,o),
(705.566,648.499,c)
);
},
{
attr = {
fillColor = (0,255);
};
closed = 1;
nodes = (
(853.764,647.072,o),
(855.082,645.753,o),
(856.992,644.626,c),
(860.968,642.28,o),
(862.942,638.351,o),
(878.006,602.789,c),
(889.944,574.604,o),
(889.013,574.755,o),
(899.868,599.251,c),
(904.184,608.991,o),
(909.615,621.39,o),
(911.938,626.804,c),
(917.188,639.036,o),
(919.568,642.666,o),
(923.572,644.531,c),
(925.301,645.337,o),
(926.725,646.545,o),
(926.736,647.217,c),
(926.753,648.137,o),
(923.384,648.438,o),
(913.086,648.438,c),
(901.924,648.438,o),
(899.414,648.183,o),
(899.414,647.05,c),
(899.414,646.287,o),
(900.687,645.384,o),
(902.242,645.042,c),
(906.14,644.186,o),
(908.609,641.161,o),
(908.478,637.406,c),
(908.418,635.686,o),
(905.289,626.587,o),
(901.524,617.188,c),
(895.447,602.014,o),
(894.574,600.371,o),
(893.739,602.539,c),
(893.222,603.882,o),
(889.605,613.293,o),
(885.702,623.453,c),
(878.606,641.927,l),
(880.817,643.717,l),
(882.034,644.702,o),
(883.859,645.508,o),
(884.874,645.508,c),
(885.889,645.508,o),
(886.719,646.167,o),
(886.719,646.973,c),
(886.719,648.216,o),
(884.284,648.438,o),
(870.663,648.438,c),
(861.832,648.438,o),
(854.362,648.041,o),
(854.063,647.557,c)
);
},
{
attr = {
fillColor = (0,255);
};
closed = 1;
nodes = (
(590.114,643.541,o),
(592.816,638.525,o),
(593.08,632.532,c),
(593.262,628.418,l),
(579.773,627.583,l),
(572.355,627.124,o),
(566.015,627.02,o),
(565.684,627.351,c),
(564.475,628.559,o),
(568.413,638.358,o),
(571.168,640.997,c),
(573.573,643.301,o),
(579.698,646.295,o),
(582.307,646.441,c),
(582.727,646.465,o),
(584.519,645.879,o),
(586.289,645.14,c)
);
},
{
attr = {
fillColor = (0,255);
};
closed = 1;
nodes = (
(712.381,447.795,o),
(703.514,442.918,o),
(696.678,436.355,c),
(686.201,426.294,o),
(681.42,414.14,o),
(681.376,397.461,c),
(681.335,381.93,o),
(685.728,370.94,o),
(695.777,361.437,c),
(705.655,352.095,o),
(716.307,349.04,o),
(736.095,349.877,c),
(748.38,350.396,o),
(754.899,351.658,o),
(765.869,355.644,c),
(771.484,357.684,l),
(771.499,370.004,l),
(771.516,384.086,o),
(772.262,386.396,o),
(777.614,388.924,c),
(779.614,389.868,o),
(781.25,391.076,o),
(781.25,391.609,c),
(781.25,392.218,o),
(773.985,392.578,o),
(761.719,392.578,c),
(745.549,392.578,o),
(742.188,392.341,o),
(742.188,391.199,c),
(742.188,390.343,o),
(743.727,389.561,o),
(746.25,389.134,c),
(748.485,388.756,o),
(751.342,387.419,o),
(752.598,386.162,c),
(754.717,384.044,o),
(754.883,383.096,o),
(754.883,373.129,c),
(754.883,360.427,o),
(754.374,359.609,o),
(744.812,356.926,c),
(737.579,354.896,o),
(727.532,355.493,o),
(721.113,358.332,c),
(704.175,365.825,o),
(695.576,389.674,o),
(700.762,414.778,c),
(703.514,428.104,o),
(710.089,437.438,o),
(720.24,442.434,c),
(724.501,444.53,o),
(726.417,444.824,o),
(735.84,444.824,c),
(747.663,444.824,o),
(753.43,443.061,o),
(759.156,437.691,c),
(762.099,434.935,o),
(766.575,426.474,o),
(766.592,423.642,c),
(766.604,421.556,o),
(767.923,420.717,o),
(769.96,421.499,c),
(771.322,422.022,o),
(771.503,423.81,o),
(771.269,434.415,c),
(770.996,446.724,l),
(762.695,448.513,l),
(751.55,450.915,o),
(729.06,451.604,o),
(721.105,449.787,c)
);
},
{
attr = {
fillColor = (0,255);
};
closed = 1;
nodes = (
(93.606,448.283,o),
(87.845,447.892,o),
(88.109,447.098,c),
(88.312,446.489,o),
(90.578,445.458,o),
(93.146,444.807,c),
(101.559,442.67,o),
(101.039,445.465,o),
(101.351,400.723,c),
(101.583,367.339,o),
(101.402,360.741,o),
(100.205,358.914,c),
(98.787,356.75,o),
(95.658,355.174,o),
(90.576,354.064,c),
(89.099,353.742,o),
(87.891,353.047,o),
(87.891,352.521,c),
(87.891,351.923,o),
(96.179,351.562,o),
(109.944,351.562,c),
(126.683,351.562,o),
(131.904,351.846,o),
(131.607,352.736,c),
(131.393,353.382,o),
(129.093,354.451,o),
(126.498,355.113,c),
(118.318,357.2,o),
(118.693,355.646,o),
(118.33,388.949,c),
(118.003,418.857,o),
(118.681,439.081,o),
(120.085,441.353,c),
(120.51,442.041,o),
(123.217,443.4,o),
(126.103,444.374,c),
(129.058,445.372,o),
(131.485,446.816,o),
(131.663,447.683,c),
(131.839,448.535,o),
(131.404,449.119,o),
(130.687,448.995,c),
(129.976,448.872,o),
(120.022,448.644,o),
(108.567,448.487,c)
);
},
{
attr = {
fillColor = (0,255);
};
closed = 1;
nodes = (
(904.448,447.128,o),
(906.13,445.312,o),
(908.617,445.312,c),
(909.856,445.312,o),
(912.073,444.365,o),
(913.546,443.207,c),
(915.75,441.473,o),
(916.132,440.55,o),
(915.713,437.965,c),
(915.166,434.594,o),
(898.319,402.139,o),
(896.868,401.662,c),
(895.86,401.33,o),
(875,437.778,o),
(875,439.871,c),
(875,441.827,o),
(879.709,445.312,o),
(882.352,445.312,c),
(883.564,445.312,o),
(884.81,445.972,o),
(885.119,446.777,c),
(885.607,448.052,o),
(882.95,448.242,o),
(864.716,448.242,c),
(848.589,448.242,o),
(843.752,447.96,o),
(843.76,447.021,c),
(843.766,446.35,o),
(845.437,445.102,o),
(847.475,444.246,c),
(852.497,442.139,o),
(856.243,437.195,o),
(868.87,416.016,c),
(884.762,389.357,o),
(883.29,393.457,o),
(883.296,375.836,c),
(883.302,358.089,o),
(883.011,357.409,o),
(874.34,354.889,c),
(871.48,354.058,o),
(869.141,352.859,o),
(869.14,352.226,c),
(869.14,351.367,o),
(874.845,351.146,o),
(891.601,351.354,c),
(904.368,351.512,o),
(914.062,352.02,o),
(914.062,352.528,c),
(914.062,353.375,o),
(908.067,355.451,o),
(905.589,355.463,c),
(904.956,355.466,o),
(903.527,356.627,o),
(902.415,358.042,c),
(900.544,360.42,o),
(900.393,361.88,o),
(900.413,377.329,c),
(900.435,394.043,l),
(903.661,399.902,l),
(905.437,403.125,o),
(908.34,408.398,o),
(910.114,411.621,c),
(923.267,435.509,o),
(929.314,443.678,o),
(934.927,445.132,c),
(936.61,445.568,o),
(937.988,446.486,o),
(937.988,447.174,c),
(937.988,448.128,o),
(934.346,448.458,o),
(922.513,448.576,c),
(914,448.661,o),
(906.584,448.45,o),
(906.03,448.107,c)
);
},
{
attr = {
fillColor = (0,255);
};
closed = 1;
nodes = (
(244.141,445.857,o),
(245.025,445.312,o),
(246.613,445.312,c),
(250.775,445.312,o),
(255.8,442.666,o),
(256.842,439.925,c),
(257.425,438.392,o),
(257.812,422.053,o),
(257.812,398.994,c),
(257.812,354.865,o),
(258.174,356.687,o),
(248.985,354.483,c),
(246.271,353.832,o),
(244.19,352.878,o),
(244.361,352.364,c),
(244.781,351.104,o),
(290.996,351.331,o),
(296.752,352.621,c),
(306.464,354.797,o),
(315.039,361.715,o),
(318.44,370.117,c),
(320.61,375.478,o),
(320.19,386.404,o),
(317.626,391.263,c),
(313.921,398.286,o),
(304.467,404.254,o),
(296.945,404.318,c),
(294.8,404.337,o),
(295.04,404.615,o),
(298.59,406.227,c),
(309.15,411.02,o),
(313.843,417.849,o),
(313.843,428.424,c),
(313.843,433.657,o),
(313.413,435.188,o),
(310.965,438.67,c),
(309.247,441.114,o),
(306.136,443.77,o),
(303.243,445.259,c),
(298.44,447.732,o),
(298.17,447.757,o),
(271.271,448.055,c),
(247.229,448.321,o),
(244.141,448.183,o),
(244.141,446.834,c)
);
},
{
attr = {
fillColor = (0,255);
};
closed = 1;
nodes = (
(295.858,438.223,o),
(298.347,433.358,o),
(298.31,424.805,c),
(298.261,413.618,o),
(293.783,407.893,o),
(283.814,406.27,c),
(274.167,404.7,o),
(274.414,404.315,o),
(274.414,420.876,c),
(274.414,428.795,o),
(274.684,437.244,o),
(275.014,439.651,c),
(275.614,444.027,l),
(280.629,443.606,l),
(283.388,443.374,o),
(287.599,442.235,o),
(289.988,441.074,c)
);
},
{
attr = {
fillColor = (0,255);
};
closed = 1;
nodes = (
(600.924,426.182,o),
(596.665,423.69,o),
(593.455,420.139,c),
(591.812,418.321,o),
(591.394,418.281,o),
(587.196,419.545,c),
(581.448,421.274,o),
(573.816,421.272,o),
(568.054,419.537,c),
(550.115,414.139,o),
(544.261,390.216,o),
(557.938,378.207,c),
(561.306,375.251,l),
(557.507,370.976,l),
(552.567,365.416,o),
(551.238,361.468,o),
(552.756,356.868,c),
(553.421,354.853,o),
(554.894,352.935,o),
(556.251,352.316,c),
(558.597,351.248,l),
(554.149,346.864,l),
(548.166,340.965,o),
(546.493,337.509,o),
(546.453,330.959,c),
(546.388,320.335,o),
(554.714,313.153,o),
(568.603,311.856,c),
(585.14,310.313,o),
(601.083,318.083,o),
(607.422,330.776,c),
(610.652,337.245,o),
(611.203,347.043,o),
(608.62,352.104,c),
(604.277,360.612,o),
(600.002,362.204,o),
(581.345,362.262,c),
(565.731,362.311,o),
(562.5,363.145,o),
(562.5,367.127,c),
(562.5,368.532,o),
(563.146,370.605,o),
(563.936,371.732,c),
(565.224,373.571,o),
(565.852,373.69,o),
(570.039,372.895,c),
(581.458,370.724,o),
(594.362,375.903,o),
(599.882,384.874,c),
(604.721,392.739,o),
(604.285,405.427,o),
(598.974,411.296,c),
(597.417,413.016,o),
(597.626,413.086,o),
(604.281,413.086,c),
(611.208,413.086,l),
(611.84,417.294,l),
(612.715,423.128,o),
(612.113,427.201,o),
(610.352,427.369,c),
(609.546,427.446,o),
(607.106,427.213,o),
(604.93,426.85,c)
);
},
{
attr = {
fillColor = (0,255);
};
closed = 1;
nodes = (
(422.494,416.953,o),
(411.538,405.845,o),
(418.07,399.312,c),
(419.635,397.748,o),
(420.843,397.401,o),
(423.134,397.859,c),
(428.38,398.908,o),
(429.947,401.148,o),
(429.47,406.911,c),
(429.003,412.537,o),
(429.587,413.046,o),
(436.55,413.072,c),
(444.158,413.103,o),
(447.266,407.778,o),
(447.266,394.714,c),
(447.266,386.044,l),
(438.232,383.339,l),
(421.827,378.425,o),
(414.994,373.403,o),
(413.699,365.31,c),
(412.83,359.872,o),
(415.665,353.275,o),
(419.788,351.144,c),
(426.468,347.689,o),
(438.824,350.399,o),
(445.447,356.772,c),
(448.022,359.251,l),
(448.581,356.458,l),
(450.199,348.367,o),
(459.817,346.753,o),
(469.47,352.951,c),
(473.401,355.476,o),
(473.041,357.027,o),
(468.613,356.636,c),
(462.211,356.07,o),
(462.073,356.654,o),
(461.73,385.927,c),
(461.441,410.624,o),
(461.319,412.113,o),
(459.37,414.726,c),
(455.015,420.563,o),
(448.438,422.37,o),
(438.837,420.365,c)
);
},
{
attr = {
fillColor = (0,255);
};
closed = 1;
nodes = (
(591.668,406.959,o),
(591.468,387.194,o),
(583.567,379.905,c),
(580.369,376.955,o),
(574.82,376.671,o),
(570.877,379.255,c),
(564.521,383.419,o),
(561.776,399.826,o),
(565.96,408.643,c),
(569.417,415.928,o),
(578.192,418.298,o),
(583.907,413.489,c)
);
},
{
attr = {
fillColor = (0,255);
};
closed = 1;
nodes = (
(299.591,395.418,o),
(302.907,388.936,o),
(302.885,378.304,c),
(302.852,363.101,o),
(295.708,355.958,o),
(281.217,356.638,c),
(274.902,356.934,l),
(274.64,379.251,l),
(274.377,401.569,l),
(281.476,400.885,l),
(285.38,400.508,o),
(290.372,399.419,o),
(292.57,398.465,c)
);
},
{
attr = {
fillColor = (0,255);
};
closed = 1;
nodes = (
(446.777,362.864,l),
(443.459,360.632,l),
(438.658,357.4,o),
(432.446,357.555,o),
(429.759,360.972,c),
(426.839,364.683,o),
(427.004,371.043,o),
(430.094,373.946,c),
(432.281,376.001,o),
(443.211,380.692,o),
(446.082,380.809,c),
(447.039,380.848,o),
(447.271,378.714,o),
(447.059,371.862,c)
);
},
{
attr = {
fillColor = (0,255);
};
closed = 1;
nodes = (
(600.13,345.582,o),
(599.493,328.655,o),
(590.683,322.004,c),
(581,314.693,o),
(566.96,316.47,o),
(562.559,325.562,c),
(560.103,330.636,o),
(559.916,338.621,o),
(562.104,345.041,c),
(563.66,349.609,l),
(576.118,349.609,l),
(582.97,349.609,o),
(589.973,349.122,o),
(591.681,348.527,c)
);
},
{
attr = {
fillColor = (0,255);
};
closed = 1;
nodes = (
(572.043,219.592,o),
(571.289,217.75,o),
(571.289,215.376,c),
(571.289,210.639,o),
(574.078,208.008,o),
(579.102,208.008,c),
(584.241,208.008,o),
(586.914,210.622,o),
(586.914,215.65,c),
(586.914,222.946,o),
(578.816,226.366,o),
(573.687,221.235,c)
);
},
{
attr = {
fillColor = (0,255);
};
closed = 1;
nodes = (
(884.011,204.564,o),
(875.845,185.808,o),
(868.564,168.263,c),
(861.283,150.718,o),
(854.499,134.74,o),
(853.487,132.757,c),
(851.512,128.884,o),
(846.932,124.545,o),
(843.755,123.537,c),
(842.678,123.195,o),
(841.797,122.286,o),
(841.797,121.517,c),
(841.797,120.362,o),
(844.446,120.117,o),
(856.934,120.117,c),
(869.361,120.117,o),
(872.07,120.365,o),
(872.07,121.505,c),
(872.07,122.268,o),
(870.772,123.177,o),
(869.187,123.525,c),
(865.313,124.376,o),
(861.328,127.637,o),
(861.328,129.955,c),
(861.328,131.656,o),
(865.058,142.974,o),
(868.305,151.123,c),
(869.568,154.297,l),
(886.813,154.297,l),
(904.057,154.297,l),
(906.273,149.17,l),
(910.155,140.191,o),
(913.918,128.689,o),
(913.407,127.358,c),
(912.997,126.29,o),
(907.975,124.026,o),
(902.588,122.481,c),
(901.917,122.289,o),
(901.367,121.679,o),
(901.367,121.124,c),
(901.367,120.465,o),
(908.439,120.117,o),
(921.875,120.117,c),
(938.428,120.117,o),
(942.383,120.371,o),
(942.383,121.434,c),
(942.383,122.158,o),
(940.655,123.43,o),
(938.544,124.259,c),
(933.02,126.429,o),
(931.547,129.665,o),
(903.876,200.439,c),
(896.973,218.098,o),
(896.137,219.727,o),
(893.978,219.727,c),
(891.968,219.727,o),
(890.894,218.28,o),
(886.711,209.944,c)
);
},
{
attr = {
fillColor = (0,255);
};
closed = 1;
nodes = (
(57.617,215.516,o),
(59.196,214.494,o),
(61.396,213.901,c),
(67.191,212.341,o),
(69.952,209.668,o),
(70.729,204.865,c),
(71.102,202.565,o),
(71.094,185.159,o),
(70.712,166.186,c),
(70.05,133.313,o),
(69.92,131.541,o),
(67.953,128.588,c),
(66.54,126.465,o),
(64.434,125.026,o),
(61.27,124.023,c),
(58.729,123.218,o),
(56.648,122.009,o),
(56.646,121.338,c),
(56.642,120.406,o),
(60.805,120.117,o),
(74.219,120.117,c),
(88.986,120.117,o),
(91.797,120.346,o),
(91.797,121.544,c),
(91.797,122.394,o),
(90.143,123.417,o),
(87.715,124.07,c),
(82.338,125.519,o),
(78.392,129.824,o),
(77.646,135.057,c),
(77.324,137.313,o),
(77.19,153.103,o),
(77.349,170.143,c),
(77.637,201.125,l),
(82.219,195.533,l),
(84.739,192.458,o),
(93.258,182.031,o),
(101.15,172.363,c),
(109.043,162.695,o),
(122.328,146.766,o),
(130.673,136.963,c),
(144.444,120.786,o),
(146.132,119.141,o),
(148.943,119.141,c),
(152.04,119.141,l),
(152.73,161.865,l),
(153.53,211.445,o),
(153.294,210.111,o),
(161.854,213.379,c),
(171.158,216.931,o),
(168.773,217.773,o),
(149.414,217.773,c),
(135.111,217.773,o),
(131.836,217.522,o),
(131.836,216.425,c),
(131.836,215.638,o),
(133.698,214.606,o),
(136.309,213.949,c),
(142.166,212.475,o),
(145.195,209.347,o),
(145.962,203.98,c),
(146.298,201.63,o),
(146.443,186.902,o),
(146.284,171.253,c),
(145.996,142.799,l),
(129.883,162.818,l),
(121.021,173.829,o),
(107.46,190.698,o),
(99.748,200.306,c),
(85.727,217.773,l),
(71.672,217.773,l),
(59.994,217.773,o),
(57.617,217.532,o),
(57.617,216.347,c)
);
},
{
attr = {
fillColor = (0,255);
};
closed = 1;
nodes = (
(245.946,215.769,o),
(248.363,214.578,o),
(253.561,213.448,c),
(255.251,213.08,o),
(257.448,211.881,o),
(258.443,210.781,c),
(260.128,208.922,o),
(260.275,206.181,o),
(260.565,171.529,c),
(260.771,146.885,o),
(260.521,133.074,o),
(259.826,130.723,c),
(258.634,126.689,o),
(255.807,124.469,o),
(250.631,123.497,c),
(248.583,123.113,o),
(247.07,122.259,o),
(247.07,121.485,c),
(247.07,120.378,o),
(250.967,120.183,o),
(269.287,120.374,c),
(282.346,120.51,o),
(291.504,120.984,o),
(291.504,121.523,c),
(291.504,122.029,o),
(288.871,123.224,o),
(285.653,124.179,c),
(282.437,125.134,o),
(279.25,126.673,o),
(278.573,127.598,c),
(277.63,128.888,o),
(277.344,139.042,o),
(277.344,171.214,c),
(277.344,213.147,l),
(284.559,212.685,l),
(298.125,211.813,o),
(302.264,206.827,o),
(302.22,191.406,c),
(302.198,183.765,o),
(301.814,181.412,o),
(300.045,178.061,c),
(297.81,173.829,o),
(293.884,170.414,o),
(290.527,169.782,c),
(289.353,169.561,o),
(288.442,168.483,o),
(288.243,167.081,c),
(287.919,164.8,o),
(288.037,164.761,o),
(293.484,165.323,c),
(304.98,166.51,o),
(314.975,174.146,o),
(317.894,183.973,c),
(321.937,197.587,o),
(316.797,209.246,o),
(304.199,215.04,c),
(299.559,217.174,o),
(298.026,217.301,o),
(273.294,217.6,c),
(255.49,217.814,o),
(247.067,217.582,o),
(246.624,216.865,c)
);
},
{
attr = {
fillColor = (0,255);
};
closed = 1;
nodes = (
(681.641,215.776,o),
(683.068,214.567,o),
(684.814,213.799,c),
(688.984,211.964,o),
(690.956,208.147,o),
(703.188,178.223,c),
(708.677,164.795,o),
(716.355,146.118,o),
(720.25,136.719,c),
(727.332,119.629,l),
(730.681,119.336,l),
(734.029,119.043,l),
(744.418,143.262,l),
(750.131,156.582,o),
(758.534,176.648,o),
(763.092,187.853,c),
(767.649,199.058,o),
(772.172,209.103,o),
(773.141,210.174,c),
(774.109,211.245,o),
(776.551,212.963,o),
(778.564,213.991,c),
(780.579,215.019,o),
(782.227,216.291,o),
(782.227,216.816,c),
(782.227,217.403,o),
(775.813,217.773,o),
(765.625,217.773,c),
(752.11,217.773,o),
(749.023,217.521,o),
(749.023,216.417,c),
(749.023,215.648,o),
(750.46,214.792,o),
(752.343,214.438,c),
(754.168,214.096,o),
(756.805,212.917,o),
(758.202,211.817,c),
(761.784,209,o),
(761.572,203.552,o),
(757.439,192.187,c),
(754.253,183.426,o),
(737.319,140.413,o),
(736.844,139.871,c),
(736.166,139.099,o),
(714.096,195.897,o),
(711.948,203.938,c),
(710.444,209.572,o),
(712.255,212.467,o),
(718.292,214.082,c),
(720.692,214.724,o),
(722.656,215.816,o),
(722.656,216.511,c),
(722.656,217.503,o),
(718.264,217.773,o),
(702.148,217.773,c),
(685.816,217.773,o),
(681.641,217.511,o),
(681.641,216.484,c)
);
},
{
attr = {
fillColor = (0,255);
};
closed = 1;
nodes = (
(898.475,169.589,o),
(901.367,161.789,o),
(901.367,161.556,c),
(901.367,161.323,o),
(894.827,161.133,o),
(886.834,161.133,c),
(872.3,161.133,l),
(878.627,177.49,l),
(882.106,186.486,o),
(885.421,195.136,o),
(885.993,196.71,c),
(886.922,199.267,o),
(887.112,199.371,o),
(887.771,197.687,c),
(888.178,196.649,o),
(891.403,188.191,o),
(894.938,178.89,c)
);
},
{
attr = {
fillColor = (0,255);
};
closed = 1;
nodes = (
(567.44,185.504,o),
(562.917,183.379,o),
(562.738,182.845,c),
(562.561,182.311,o),
(563.643,181.567,o),
(565.143,181.192,c),
(571.349,179.644,o),
(571.289,179.922,o),
(571.289,152.344,c),
(571.289,124.816,o),
(571.436,125.516,o),
(565.184,123.139,c),
(559.187,120.859,o),
(562.606,120.117,o),
(579.102,120.117,c),
(592.616,120.117,o),
(595.703,120.369,o),
(595.703,121.474,c),
(595.703,122.248,o),
(594.249,123.103,o),
(592.313,123.466,c),
(585.969,124.655,o),
(585.938,124.832,o),
(585.938,159.886,c),
(585.938,189.272,o),
(585.821,191.403,o),
(584.229,191.361,c),
(583.289,191.336,o),
(578.142,189.628,o),
(572.791,187.565,c)
);
},
{
attr = {
fillColor = (0,255);
};
closed = 1;
nodes = (
(424.751,186.182,o),
(416.623,179.088,o),
(411.87,169.115,c),
(406.305,157.437,o),
(407.229,140.022,o),
(413.906,130.731,c),
(416.931,126.523,o),
(423.684,121.788,o),
(429.07,120.099,c),
(435.36,118.125,o),
(448.766,119.283,o),
(454.59,122.304,c),
(459.854,125.033,o),
(466.222,131.197,o),
(469.54,136.774,c),
(476.143,147.873,o),
(476.063,166.925,o),
(469.368,177.528,c),
(462.897,187.778,o),
(447.968,192.668,o),
(434.57,188.925,c)
);
},
{
attr = {
fillColor = (0,255);
};
closed = 1;
nodes = (
(455.58,179.326,o),
(459.412,168.338,o),
(458.808,151.379,c),
(458.452,141.395,o),
(458.067,139.302,o),
(455.703,134.469,c),
(452.105,127.116,o),
(448.366,124.512,o),
(441.406,124.512,c),
(434.432,124.512,o),
(430.71,127.115,o),
(427.062,134.546,c),
(424.436,139.894,o),
(424.316,140.752,o),
(424.316,154.297,c),
(424.316,168.077,o),
(424.395,168.614,o),
(427.246,174.316,c),
(431.973,183.77,o),
(439.488,186.962,o),
(447.768,183.033,c)
);
}
);
width = 1000;
}
);
unicode = 72;
},
{
glyphname = I;
lastChange = "2023-01-30 15:16:07 +0000";
layers = (
{
layerId = m01;
shapes = (
{
attr = {
fillColor = (0,255);
};
closed = 1;
nodes = (
(54,643,o),
(16,641,o),
(18,637,c),
(19,631,o),
(33,626,o),
(52,620,c),
(107,606,o),
(104,626,o),
(106,328,c),
(107,105,o),
(106,61,o),
(98,49,c),
(89,35,o),
(67,24,o),
(33,16,c),
(23,14,o),
(17,10,o),
(17,7,c),
(17,2,o),
(71,0,o),
(163,0,c),
(274,0,o),
(309,2,o),
(307,9,c),
(306,12,o),
(289,20,o),
(273,24,c),
(219,37,o),
(221,27,o),
(219,249,c),
(216,447,o),
(221,583,o),
(231,597,c),
(233,603,o),
(251,610,o),
(271,618,c),
(289,625,o),
(306,633,o),
(307,640,c),
(308,645,o),
(306,650,o),
(300,649,c),
(296,647,o),
(229,645,o),
(153,644,c)
);
}
);
width = 324;
}
);
unicode = 73;
},
{
glyphname = N;
lastChange = "2023-01-30 15:16:07 +0000";
layers = (
{
layerId = m01;
shapes = (
{
attr = {
fillColor = (0,255);
};
closed = 1;
nodes = (
(22,633,o),
(33,627,o),
(48,622,c),
(86,613,o),
(105,595,o),
(109,562,c),
(112,548,o),
(112,431,o),
(109,306,c),
(105,87,o),
(105,75,o),
(92,55,c),
(82,41,o),
(68,31,o),
(46,25,c),
(30,19,o),
(17,12,o),
(17,6,c),
(17,1,o),
(44,-1,o),
(132,-1,c),
(231,-1,o),
(250,1,o),
(250,8,c),
(250,14,o),
(239,20,o),
(224,25,c),
(187,35,o),
(161,64,o),
(155,98,c),
(153,113,o),
(153,219,o),
(154,331,c),
(155,538,l),
(186,500,l),
(203,479,o),
(260,411,o),
(313,346,c),
(364,283,o),
(453,176,o),
(508,111,c),
(601,3,o),
(612,-8,o),
(629,-8,c),
(650,-8,l),
(655,277,l),
(661,607,o),
(659,597,o),
(715,619,c),
(779,643,o),
(761,648,o),
(634,648,c),
(538,648,o),
(516,647,o),
(516,640,c),
(516,635,o),
(529,628,o),
(546,622,c),
(585,613,o),
(605,593,o),
(611,558,c),
(613,542,o),
(614,443,o),
(613,340,c),
(611,149,l),
(504,283,l),
(445,356,o),
(354,470,o),
(303,532,c),
(210,648,l),
(116,648,l),
(38,648,o),
(22,647,o),
(22,640,c)
);
}
);
width = 763;
}
);
unicode = 78;
},
{
glyphname = O;
lastChange = "2023-01-30 15:16:07 +0000";
layers = (
{
layerId = m01;
shapes = (
{
attr = {
fillColor = (0,255);
};
closed = 1;
nodes = (
(166,623,o),
(80,536,o),
(51,420,c),
(38,371,o),
(38,263,o),
(51,214,c),
(79,99,o),
(165,22,o),
(286,-2,c),
(453,-36,o),
(613,36,o),
(683,177,c),
(714,239,o),
(726,303,o),
(720,373,c),
(707,525,o),
(630,622,o),
(493,655,c),
(442,667,o),
(328,666,o),
(282,654,c)
);
},
{
attr = {
fillColor = (0,255);
};
closed = 1;
nodes = (
(500,590,o),
(551,535,o),
(567,500,c),
(600,425,o),
(610,307,o),
(589,223,c),
(562,109,o),
(489,35,o),
(392,29,c),
(329,24,o),
(287,39,o),
(245,82,c),
(183,144,o),
(152,242,o),
(160,359,c),
(167,490,o),
(220,584,o),
(304,615,c),
(342,629,o),
(431,625,o),
(467,607,c)
);
}
);
width = 760;
}
);
unicode = 79;
},
{
glyphname = P;
lastChange = "2023-01-30 15:16:07 +0000";
layers = (
{
layerId = m01;
shapes = (
{
attr = {
fillColor = (0,255);
};
closed = 1;
nodes = (
(12,635,o),
(28,628,o),
(63,620,c),
(74,618,o),
(88,609,o),
(96,603,c),
(107,591,o),
(108,572,o),
(109,341,c),
(110,177,o),
(109,86,o),
(104,70,c),
(97,42,o),
(77,27,o),
(43,22,c),
(29,19,o),
(19,13,o),
(19,8,c),
(19,1,o),
(46,0,o),
(167,1,c),
(254,1,o),
(315,4,o),
(315,8,c),
(315,12,o),
(297,19,o),
(276,26,c),
(255,32,o),
(233,42,o),
(229,48,c),
(222,58,o),
(221,124,o),
(221,339,c),
(221,618,l),
(269,615,l),
(359,609,o),
(387,575,o),
(386,473,c),
(386,422,o),
(383,406,o),
(371,385,c),
(357,356,o),
(331,333,o),
(308,329,c),
(302,328,o),
(295,320,o),
(294,312,c),
(292,296,o),
(292,296,o),
(328,300,c),
(405,307,o),
(472,357,o),
(491,424,c),
(518,514,o),
(484,593,o),
(399,630,c),
(369,644,o),
(358,646,o),
(194,647,c),
(75,649,o),
(19,647,o),
(17,642,c)
);
}
);
width = 529;
}
);
unicode = 80;
},
{
glyphname = S;
lastChange = "2023-01-30 15:16:07 +0000";
layers = (
{
layerId = m01;
shapes = (
{
attr = {
fillColor = (0,255);
};
closed = 1;
nodes = (
(127,633,o),
(73,562,o),
(74,471,c),
(74,383,o),
(110,338,o),
(215,285,c),
(306,241,o),
(335,206,o),
(335,144,c),
(335,116,o),
(317,73,o),
(298,56,c),
(261,24,o),
(194,17,o),
(147,40,c),
(113,59,o),
(92,86,o),
(76,139,c),
(66,170,o),
(61,180,o),
(50,181,c),
(37,183,o),
(37,182,o),
(38,99,c),
(40,17,l),
(73,4,l),
(98,-6,o),
(121,-10,o),
(179,-10,c),
(247,-10,o),
(258,-9,o),
(291,7,c),
(341,31,o),
(371,60,o),
(395,109,c),
(414,148,o),
(416,159,o),
(416,208,c),
(416,257,o),
(415,266,o),
(399,294,c),
(378,330,o),
(342,354,o),
(272,386,c),
(202,416,o),
(170,446,o),
(160,486,c),
(147,540,o),
(169,591,o),
(213,615,c),
(237,627,o),
(287,625,o),
(316,612,c),
(344,598,o),
(358,577,o),
(378,526,c),
(401,460,o),
(411,470,o),
(412,562,c),
(414,643,l),
(390,649,l),
(356,659,o),
(247,664,o),
(217,656,c)
);
}
);
width = 466;
}
);
unicode = 83;
},
{
glyphname = V;
lastChange = "2023-01-30 15:16:07 +0000";
layers = (
{
layerId = m01;
shapes = (
{
attr = {
fillColor = (0,255);
};
closed = 1;
nodes = (
(12,635,o),
(22,628,o),
(34,622,c),
(61,609,o),
(73,584,o),
(156,386,c),
(192,296,o),
(243,171,o),
(270,110,c),
(318,-5,l),
(338,-7,l),
(360,-9,l),
(430,153,l),
(468,242,o),
(524,375,o),
(554,450,c),
(585,523,o),
(615,592,o),
(621,598,c),
(628,606,o),
(644,617,o),
(657,624,c),
(671,630,o),
(682,639,o),
(682,642,c),
(682,646,o),
(639,648,o),
(572,648,c),
(481,648,o),
(461,647,o),
(461,640,c),
(461,635,o),
(470,629,o),
(483,627,c),
(495,624,o),
(513,617,o),
(521,609,c),
(545,591,o),
(544,554,o),
(517,478,c),
(496,421,o),
(382,134,o),
(380,131,c),
(375,125,o),
(228,503,o),
(214,556,c),
(204,594,o),
(216,613,o),
(257,624,c),
(272,629,o),
(286,636,o),
(286,640,c),
(286,647,o),
(257,648,o),
(149,648,c),
(40,648,o),
(12,647,o),
(12,640,c)
);
}
);
width = 694;
}
);
unicode = 86;
},
{
glyphname = Y;
lastChange = "2023-01-30 15:16:07 +0000";
layers = (
{
layerId = m01;
shapes = (
{
attr = {
fillColor = (0,255);
};
closed = 1;
nodes = (
(416,637,o),
(427,625,o),
(443,625,c),
(451,625,o),
(466,618,o),
(476,609,c),
(490,598,o),
(493,593,o),
(490,574,c),
(487,553,o),
(375,336,o),
(365,334,c),
(357,331,o),
(220,573,o),
(220,588,c),
(220,601,o),
(251,625,o),
(268,625,c),
(276,625,o),
(285,629,o),
(286,633,c),
(290,642,o),
(272,643,o),
(151,643,c),
(43,643,o),
(12,641,o),
(12,634,c),
(12,631,o),
(22,622,o),
(36,617,c),
(69,603,o),
(94,570,o),
(178,429,c),
(284,252,o),
(274,279,o),
(274,161,c),
(274,44,o),
(273,38,o),
(214,23,c),
(196,16,o),
(179,9,o),
(179,4,c),
(179,-1,o),
(219,-2,o),
(330,-1,c),
(415,0,o),
(479,3,o),
(479,7,c),
(479,12,o),
(440,26,o),
(423,26,c),
(418,26,o),
(409,34,o),
(401,44,c),
(389,59,o),
(388,69,o),
(388,171,c),
(389,282,l),
(409,322,l),
(421,343,o),
(441,378,o),
(453,400,c),
(540,559,o),
(581,614,o),
(618,622,c),
(630,626,o),
(638,631,o),
(638,637,c),
(638,642,o),
(614,644,o),
(536,645,c),
(478,645,o),
(429,644,o),
(426,642,c)
);
}
);
width = 650;
}
);
unicode = 89;
},
{
glyphname = a;
lastChange = "2023-01-30 15:16:07 +0000";
layers = (
{
layerId = m01;
shapes = (
{
attr = {
fillColor = (0,255);
};
closed = 1;
nodes = (
(98,435,o),
(25,362,o),
(68,318,c),
(78,307,o),
(87,304,o),
(101,308,c),
(137,315,o),
(148,330,o),
(144,368,c),
(141,407,o),
(145,409,o),
(192,410,c),
(242,410,o),
(262,374,o),
(262,288,c),
(262,230,l),
(201,211,l),
(93,179,o),
(49,145,o),
(40,92,c),
(34,56,o),
(52,12,o),
(79,-2,c),
(124,-26,o),
(207,-8,o),
(250,35,c),
(267,51,l),
(271,33,l),
(282,-21,o),
(346,-32,o),
(410,10,c),
(437,26,o),
(435,36,o),
(405,34,c),
(362,29,o),
(362,34,o),
(359,229,c),
(357,392,o),
(355,402,o),
(343,421,c),
(315,460,o),
(271,472,o),
(207,458,c)
);
},
{
attr = {
fillColor = (0,255);
};
closed = 1;
nodes = (
(259,75,l),
(237,60,l),
(206,38,o),
(164,39,o),
(146,62,c),
(127,87,o),
(128,130,o),
(149,148,c),
(163,163,o),
(236,193,o),
(255,194,c),
(261,194,o),
(262,181,o),
(261,135,c)
);
}
);
width = 447;
}
);
unicode = 97;
},
{
glyphname = b;
lastChange = "2023-01-30 15:16:07 +0000";
layers = (
{
layerId = m01;
shapes = (
{
attr = {
fillColor = (0,255);
};
closed = 1;
nodes = (
(54,674,o),
(32,662,o),
(30,655,c),
(29,647,o),
(32,645,o),
(42,645,c),
(50,645,o),
(62,639,o),
(68,632,c),
(81,618,o),
(81,610,o),
(81,319,c),
(81,20,l),
(118,2,l),
(145,-10,o),
(180,-16,o),
(216,-16,cs),
(249,-16,o),
(283,-11,o),
(310,0,c),
(414,41,o),
(476,153,o),
(476,263,cs),
(476,318,o),
(461,371,o),
(428,415,c),
(402,449,o),
(363,464,o),
(307,461,c),
(260,459,o),
(241,451,o),
(186,413,c),
(172,402,l),
(173,555,l),
(173,587,o),
(174,612,o),
(174,633,cs),
(174,689,o),
(171,709,o),
(153,709,cs),
(141,709,o),
(122,699,o),
(92,688,c)
);
},
{
attr = {
fillColor = (0,255);
};
closed = 1;
nodes = (
(360,343,o),
(382,293,o),
(386,222,c),
(390,132,o),
(369,83,o),
(316,54,c),
(297,45,o),
(275,40,o),
(253,40,cs),
(227,40,o),
(202,47,o),
(188,60,c),
(172,75,l),
(174,226,l),
(175,375,l),
(198,383,l),
(210,387,o),
(224,389,o),
(240,389,cs),
(270,389,o),
(302,382,o),
(321,369,c)
);
}
);
width = 508;
}
);
unicode = 98;
},
{
glyphname = e;
lastChange = "2023-01-30 15:16:07 +0000";
layers = (
{
layerId = m01;
shapes = (
{
attr = {
fillColor = (0,255);
};
closed = 1;
nodes = (
(165,441,o),
(126,413,o),
(92,362,c),
(55,307,o),
(44,264,o),
(49,185,c),
(50,131,o),
(53,115,o),
(68,87,c),
(112,4,o),
(202,-32,o),
(300,-2,c),
(354,13,o),
(410,55,o),
(410,79,c),
(410,93,o),
(412,93,o),
(352,72,c),
(292,50,o),
(234,59,o),
(191,95,c),
(159,122,o),
(146,156,o),
(139,218,c),
(136,266,l),
(280,266,l),
(424,266,l),
(427,288,l),
(431,310,o),
(421,362,o),
(407,390,c),
(394,415,o),
(356,447,o),
(328,455,c),
(299,462,o),
(256,462,o),
(220,453,c)
);
},
{
attr = {
fillColor = (0,255);
};
closed = 1;
nodes = (
(308,409,o),
(327,376,o),
(328,337,c),
(329,308,l),
(239,303,l),
(190,301,o),
(148,298,o),
(146,302,c),
(138,309,o),
(163,375,o),
(183,392,c),
(198,407,o),
(239,427,o),
(257,428,c),
(259,428,o),
(271,425,o),
(283,419,c)
);
}
);
width = 468;
}
);
unicode = 101;
},
{
glyphname = g;
lastChange = "2023-01-30 15:16:07 +0000";
layers = (
{
layerId = m01;
shapes = (
{
attr = {
fillColor = (0,255);
};
closed = 1;
nodes = (
(397,497,o),
(369,480,o),
(347,456,c),
(336,444,o),
(334,444,o),
(306,452,c),
(267,464,o),
(217,464,o),
(178,452,c),
(59,416,o),
(21,257,o),
(111,178,c),
(133,158,l),
(108,130,l),
(75,92,o),
(67,66,o),
(76,35,c),
(81,22,o),
(91,10,o),
(100,4,c),
(115,-1,l),
(86,-32,l),
(46,-71,o),
(35,-94,o),
(35,-137,c),
(34,-207,o),
(90,-255,o),
(182,-264,c),
(291,-275,o),
(398,-222,o),
(441,-138,c),
(462,-95,o),
(466,-31,o),
(449,3,c),
(420,60,o),
(390,71,o),
(267,71,c),
(164,71,o),
(142,77,o),
(142,104,c),
(142,113,o),
(146,126,o),
(152,134,c),
(159,146,o),
(164,147,o),
(191,143,c),
(267,128,o),
(353,161,o),
(390,221,c),
(422,275,o),
(420,359,o),
(385,398,c),
(374,409,o),
(375,410,o),
(420,410,c),
(466,410,l),
(470,438,l),
(475,476,o),
(472,504,o),
(460,505,c),
(455,506,o),
(438,504,o),
(423,500,c)
);
},
{
attr = {
fillColor = (0,255);
};
closed = 1;
nodes = (
(335,368,o),
(334,237,o),
(281,189,c),
(261,169,o),
(224,167,o),
(197,185,c),
(155,211,o),
(136,322,o),
(165,379,c),
(188,428,o),
(245,444,o),
(285,412,c)
);
},
{
attr = {
fillColor = (0,255);
};
closed = 1;
nodes = (
(393,-40,o),
(387,-153,o),
(329,-196,c),
(265,-246,o),
(170,-233,o),
(142,-173,c),
(126,-140,o),
(124,-86,o),
(140,-44,c),
(148,-12,l),
(232,-12,l),
(278,-12,o),
(324,-16,o),
(335,-20,c)
);
}
);
width = 504;
}
);
unicode = 103;
},
{
glyphname = h;
lastChange = "2023-01-30 15:16:07 +0000";
layers = (
{
background = {
shapes = (
{
attr = {
fillColor = (0,255);
};
closed = 1;
nodes = (
(60,674,o),
(38,662,o),
(36,655,c),
(35,647,o),
(38,645,o),
(48,645,c),
(56,645,o),
(68,639,o),
(74,632,c),
(87,618,o),
(87,610,o),
(87,319,c),
(87,20,l),
(124,2,l),
(151,-10,o),
(186,-16,o),
(222,-16,cs),
(255,-16,o),
(289,-11,o),
(316,0,c),
(420,41,o),
(482,153,o),
(482,263,cs),
(482,318,o),
(467,371,o),
(434,415,c),
(408,449,o),
(369,464,o),
(313,461,c),
(266,459,o),
(247,451,o),
(192,413,c),
(178,402,l),
(179,555,l),
(179,587,o),
(180,612,o),
(180,633,cs),
(180,689,o),
(177,709,o),
(159,709,cs),
(147,709,o),
(128,699,o),
(98,688,c)
);
},
{
attr = {
fillColor = (0,255);
};
closed = 1;
nodes = (
(366,343,o),
(388,293,o),
(392,222,c),
(396,132,o),
(375,83,o),
(322,54,c),
(303,45,o),
(281,40,o),
(259,40,cs),
(233,40,o),
(208,47,o),
(194,60,c),
(178,75,l),
(180,226,l),
(181,375,l),
(204,383,l),
(216,387,o),
(230,389,o),
(246,389,cs),
(276,389,o),
(308,382,o),
(327,369,c)
);
}
);
};
layerId = m01;
shapes = (
{
attr = {
fillColor = (0,255);
};
closed = 1;
nodes = (
(46,667,o),
(35,660,o),
(35,652,c),
(35,647,o),
(41,644,o),
(51,644,c),
(60,644,o),
(65,640,o),
(74,632,c),
(86,612,l),
(86,204,l),
(86,50,o),
(85,48,o),
(71,34,c),
(63,27,o),
(48,18,o),
(37,16,c),
(21,12,o),
(15,-4,o),
(33,-2,c),
(36,-2,o),
(86,-1,o),
(141,-1,c),
(196,-1,o),
(242,2,o),
(242,5,c),
(242,7,o),
(229,16,o),
(214,23,c),
(186,35,l),
(184,202,l),
(182,368,l),
(201,376,l),
(231,391,o),
(307,393,o),
(331,380,c),
(372,359,o),
(377,334,o),
(377,176,c),
(377,39,l),
(357,26,l),
(345,18,o),
(330,13,o),
(324,13,c),
(318,13,o),
(313,10,o),
(313,6,c),
(313,2,o),
(357,0,o),
(431,0,c),
(518,0,o),
(547,1,o),
(545,7,c),
(544,12,o),
(531,18,o),
(518,22,c),
(478,34,o),
(475,41,o),
(475,213,c),
(475,371,o),
(472,393,o),
(444,425,c),
(416,456,o),
(347,470,o),
(292,455,c),
(280,451,o),
(251,443,o),
(227,430,c),
(179,400,l),
(182,631,l),
(181,648,o),
(181,702,o),
(168,709,c),
(158,710,o),
(143,706,o),
(115,695,c)
);
}
);
width = 557;
}
);
unicode = 104;
},
{
glyphname = i;
lastChange = "2023-01-30 15:16:07 +0000";
layers = (
{
layerId = m01;
shapes = (
{
attr = {
fillColor = (0,255);
};
closed = 1;
nodes = (
(88,660,o),
(84,648,o),
(84,632,c),
(84,600,o),
(103,584,o),
(136,584,c),
(171,584,o),
(187,600,o),
(187,635,c),
(187,683,o),
(135,706,o),
(99,671,c)
);
},
{
attr = {
fillColor = (0,255);
};
closed = 1;
nodes = (
(59,434,o),
(28,419,o),
(27,416,c),
(26,412,o),
(32,407,o),
(42,405,c),
(85,395,o),
(84,397,o),
(84,213,c),
(84,30,o),
(85,35,o),
(43,19,c),
(4,3,o),
(27,-1,o),
(136,-1,c),
(226,-1,o),
(247,1,o),
(247,8,c),
(247,13,o),
(237,19,o),
(224,22,c),
(182,28,o),
(182,30,o),
(182,264,c),
(182,460,o),
(181,473,o),
(170,473,c),
(163,473,o),
(129,462,o),
(95,448,c)
);
}
);
width = 263;
}
);
unicode = 105;
},
{
glyphname = n;
lastChange = "2023-01-30 15:16:07 +0000";
layers = (
{
layerId = m01;
shapes = (
{
attr = {
fillColor = (0,255);
};
closed = 1;
nodes = (
(299,459,o),
(257,441,o),
(227,420,c),
(210,408,o),
(193,397,o),
(190,397,c),
(187,397,o),
(187,413,o),
(189,429,c),
(194,462,l),
(175,462,l),
(155,462,o),
(95,440,o),
(47,416,c),
(22,403,o),
(20,391,o),
(43,391,c),
(48,391,o),
(64,384,o),
(73,375,c),
(91,360,l),
(94,215,l),
(95,121,o),
(92,63,o),
(89,51,c),
(84,39,o),
(72,29,o),
(52,20,c),
(35,12,o),
(23,5,o),
(25,2,c),
(28,1,o),
(78,-1,o),
(138,-1,c),
(250,-1,o),
(277,6,o),
(226,21,c),
(211,24,o),
(195,33,o),
(191,40,c),
(188,49,o),
(186,112,o),
(186,211,c),
(187,371,l),
(219,380,l),
(288,403,o),
(351,388,o),
(376,344,c),
(388,325,o),
(391,310,o),
(393,185,c),
(395,52,o),
(394,47,o),
(381,35,c),
(373,29,o),
(359,21,o),
(348,17,c),
(307,3,o),
(328,-1,o),
(439,0,c),
(553,0,o),
(581,6,o),
(530,21,c),
(516,24,o),
(502,33,o),
(497,40,c),
(494,47,o),
(491,112,o),
(491,201,c),
(491,353,o),
(487,386,o),
(464,419,c),
(441,450,o),
(381,472,o),
(334,464,c)
);
}
);
width = 573;
}
);
unicode = 110;
},
{
glyphname = o;
lastChange = "2023-01-30 15:16:07 +0000";
layers = (
{
layerId = m01;
shapes = (
{
attr = {
fillColor = (0,255);
};
closed = 1;
nodes = (
(154,439,o),
(102,391,o),
(69,325,c),
(32,247,o),
(38,132,o),
(83,70,c),
(103,42,o),
(147,11,o),
(183,-1,c),
(226,-14,o),
(314,-7,o),
(352,13,c),
(388,31,o),
(430,72,o),
(454,110,c),
(496,184,o),
(496,310,o),
(452,380,c),
(408,449,o),
(309,482,o),
(219,457,c)
);
},
{
attr = {
fillColor = (0,255);
};
closed = 1;
nodes = (
(360,393,o),
(385,320,o),
(382,207,c),
(380,140,o),
(377,126,o),
(361,94,c),
(337,46,o),
(312,27,o),
(265,27,c),
(219,27,o),
(194,46,o),
(170,96,c),
(153,131,o),
(152,136,o),
(152,225,c),
(152,318,o),
(152,321,o),
(171,358,c),
(203,422,o),
(252,443,o),
(308,417,c)
);
}
);
width = 531;
}
);
unicode = 111;
},
{
glyphname = p;
lastChange = "2023-01-30 15:16:07 +0000";
layers = (
{
layerId = m01;
shapes = (
{
attr = {
fillColor = (0,255);
};
closed = 1;
nodes = (
(266,456,o),
(233,439,o),
(209,421,c),
(186,403,l),
(185,434,l),
(182,459,o),
(180,462,o),
(166,462,c),
(144,462,o),
(27,410,o),
(27,399,c),
(27,395,o),
(33,391,o),
(43,391,c),
(51,391,o),
(64,384,o),
(72,374,c),
(86,357,o),
(86,350,o),
(86,68,c),
(86,-110,o),
(83,-225,o),
(79,-232,c),
(76,-240,o),
(62,-248,o),
(49,-253,c),
(39,-256,o),
(30,-261,o),
(30,-265,cs),
(30,-265,o),
(31,-266,o),
(31,-266,c),
(32,-269,o),
(81,-273,o),
(141,-273,c),
(232,-273,o),
(247,-270,o),
(247,-263,c),
(247,-256,o),
(242,-253,o),
(234,-253,c),
(226,-253,o),
(212,-248,o),
(202,-243,c),
(185,-234,o),
(180,-226,o),
(180,-165,cs),
(180,-148,o),
(180,-126,o),
(181,-98,c),
(183,-12,l),
(224,-15,l),
(234,-16,o),
(243,-17,o),
(253,-17,cs),
(319,-17,o),
(381,10,o),
(427,61,c),
(475,111,o),
(499,184,o),
(499,255,cs),
(499,315,o),
(481,373,o),
(446,415,c),
(421,445,o),
(368,466,o),
(324,466,cs),
(314,466,o),
(305,465,o),
(296,463,c)
);
},
{
attr = {
fillColor = (0,255);
};
closed = 1;
nodes = (
(378,342,o),
(400,292,o),
(402,218,c),
(403,186,o),
(401,148,o),
(398,134,c),
(378,62,o),
(318,16,o),
(253,22,c),
(234,24,o),
(210,29,o),
(200,34,c),
(182,42,l),
(185,208,l),
(186,375,l),
(209,383,l),
(222,388,o),
(238,390,o),
(255,390,cs),
(286,390,o),
(319,383,o),
(339,369,c)
);
}
);
width = 531;
}
);
unicode = 112;
},
{
glyphname = s;
lastChange = "2023-01-30 15:16:07 +0000";
layers = (
{
layerId = m01;
shapes = (
{
attr = {
fillColor = (0,255);
};
closed = 1;
nodes = (
(143,448,o),
(103,423,o),
(87,387,c),
(58,331,o),
(74,250,o),
(116,222,c),
(125,217,o),
(155,199,o),
(183,185,c),
(255,147,o),
(274,111,o),
(250,61,c),
(237,31,o),
(209,17,o),
(175,22,c),
(139,27,o),
(114,52,o),
(94,109,c),
(80,143,o),
(74,156,o),
(65,156,c),
(54,156,o),
(53,148,o),
(53,84,c),
(53,12,l),
(78,1,l),
(114,-14,o),
(195,-17,o),
(233,-4,c),
(274,10,o),
(311,41,o),
(328,74,c),
(341,105,o),
(343,167,o),
(330,197,c),
(318,226,o),
(279,259,o),
(229,281,c),
(177,304,o),
(152,327,o),
(147,354,c),
(142,378,o),
(156,412,o),
(174,418,c),
(197,427,o),
(234,423,o),
(251,407,c),
(272,392,o),
(294,349,o),
(294,323,c),
(294,309,o),
(297,305,o),
(306,305,c),
(320,305,o),
(326,331,o),
(326,397,c),
(326,437,o),
(325,441,o),
(311,446,c),
(285,453,o),
(226,459,o),
(191,453,c)
);
}
);
width = 393;
}
);
unicode = 115;
},
{
glyphname = v;
lastChange = "2023-01-30 15:16:07 +0000";
layers = (
{
layerId = m01;
shapes = (
{
attr = {
fillColor = (0,255);
};
closed = 1;
nodes = (
(12,434,o),
(21,424,o),
(34,416,c),
(60,401,o),
(72,375,o),
(173,138,c),
(253,-49,o),
(246,-48,o),
(318,115,c),
(347,180,o),
(384,261,o),
(399,297,c),
(434,379,o),
(450,403,o),
(476,416,c),
(487,422,o),
(497,429,o),
(497,434,c),
(497,439,o),
(475,441,o),
(407,441,c),
(333,441,o),
(316,440,o),
(316,431,c),
(316,427,o),
(324,422,o),
(335,418,c),
(361,414,o),
(377,393,o),
(376,368,c),
(375,357,o),
(354,296,o),
(330,233,c),
(289,133,o),
(283,122,o),
(278,137,c),
(275,145,o),
(251,208,o),
(225,276,c),
(178,398,l),
(192,411,l),
(200,417,o),
(212,423,o),
(219,423,c),
(226,423,o),
(231,427,o),
(231,431,c),
(231,440,o),
(215,441,o),
(124,441,c),
(65,441,o),
(15,439,o),
(14,436,c)
);
}
);
width = 511;
}
);
unicode = 118;
},
{
glyphname = y;
lastChange = "2023-01-30 15:16:07 +0000";
layers = (
{
layerId = m01;
shapes = (
{
attr = {
fillColor = (0,255);
};
closed = 1;
nodes = (
(18,431,o),
(28,423,o),
(39,416,c),
(64,404,o),
(68,395,o),
(169,162,c),
(244,-11,l),
(204,-100,l),
(183,-149,o),
(160,-200,o),
(152,-209,c),
(140,-228,o),
(138,-228,o),
(134,-215,c),
(122,-185,o),
(81,-173,o),
(56,-192,c),
(43,-203,o),
(40,-212,o),
(40,-236,c),
(40,-269,o),
(51,-284,o),
(83,-288,c),
(119,-294,o),
(151,-276,o),
(180,-232,c),
(205,-192,o),
(288,6,o),
(379,241,c),
(398,293,o),
(422,349,o),
(430,365,c),
(446,397,o),
(473,424,o),
(490,424,c),
(494,424,o),
(499,428,o),
(499,434,c),
(499,441,o),
(483,443,o),
(404,443,c),
(332,443,o),
(309,440,o),
(310,436,c),
(313,431,o),
(323,425,o),
(335,423,c),
(358,416,o),
(374,395,o),
(374,371,c),
(374,361,o),
(357,302,o),
(335,238,c),
(298,131,o),
(284,96,o),
(284,118,c),
(284,121,o),
(262,184,o),
(235,255,c),
(208,327,o),
(186,390,o),
(186,396,c),
(186,409,o),
(205,424,o),
(224,424,c),
(232,424,o),
(238,427,o),
(238,434,c),
(238,441,o),
(221,443,o),
(128,443,c),
(43,443,o),
(18,440,o),
(18,435,c)
);
}
);
width = 510;
}
);
unicode = 121;
},
